<svg id="visual" viewBox="0 0 900 600" width="900" height="600" xmlns="http://www.w3.org/2000/svg" xmlns:xlink="http://www.w3.org/1999/xlink" version="1.1"><rect x="0" y="0" width="900" height="600" fill="#001220"></rect><path d="M0 403L21.5 400.3C43 397.7 86 392.3 128.8 396.3C171.7 400.3 214.3 413.7 257.2 408.2C300 402.7 343 378.3 385.8 365.8C428.7 353.3 471.3 352.7 514.2 361C557 369.3 600 386.7 642.8 401.5C685.7 416.3 728.3 428.7 771.2 425.5C814 422.3 857 403.7 878.5 394.3L900 385L900 601L878.5 601C857 601 814 601 771.2 601C728.3 601 685.7 601 642.8 601C600 601 557 601 514.2 601C471.3 601 428.7 601 385.8 601C343 601 300 601 257.2 601C214.3 601 171.7 601 128.8 601C86 601 43 601 21.5 601L0 601Z" fill="#fa7268"></path><path d="M0 395L21.5 395.8C43 396.7 86 398.3 128.8 405C171.7 411.7 214.3 423.3 257.2 432.3C300 441.3 343 447.7 385.8 452.3C428.7 457 471.3 460 514.2 454.7C557 449.3 600 435.7 642.8 435C685.7 434.3 728.3 446.7 771.2 451.2C814 455.7 857 452.3 878.5 450.7L900 449L900 601L878.5 601C857 601 814 601 771.2 601C728.3 601 685.7 601 642.8 601C600 601 557 601 514.2 601C471.3 601 428.7 601 385.8 601C343 601 300 601 257.2 601C214.3 601 171.7 601 128.8 601C86 601 43 601 21.5 601L0 601Z" fill="#ef5f67"></path><path d="M0 486L21.5 479C43 472 86 458 128.8 450.5C171.7 443 214.3 442 257.2 441.5C300 441 343 441 385.8 449.2C428.7 457.3 471.3 473.7 514.2 483C557 492.3 600 494.7 642.8 496.2C685.7 497.7 728.3 498.3 771.2 499.7C814 501 857 503 878.5 504L900 505L900 601L878.5 601C857 601 814 601 771.2 601C728.3 601 685.7 601 642.8 601C600 601 557 601 514.2 601C471.3 601 428.7 601 385.8 601C343 601 300 601 257.2 601C214.3 601 171.7 601 128.8 601C86 601 43 601 21.5 601L0 601Z" fill="#e34c67"></path><path d="M0 490L21.5 492.5C43 495 86 500 128.8 508C171.7 516 214.3 527 257.2 530C300 533 343 528 385.8 525.3C428.7 522.7 471.3 522.3 514.2 517.3C557 512.3 600 502.7 642.8 501.2C685.7 499.7 728.3 506.3 771.2 510.8C814 515.3 857 517.7 878.5 518.8L900 520L900 601L878.5 601C857 601 814 601 771.2 601C728.3 601 685.7 601 642.8 601C600 601 557 601 514.2 601C471.3 601 428.7 601 385.8 601C343 601 300 601 257.2 601C214.3 601 171.7 601 128.8 601C86 601 43 601 21.5 601L0 601Z" fill="#d53867"></path><path d="M0 551L21.5 553.8C43 556.7 86 562.3 128.8 563.5C171.7 564.7 214.3 561.3 257.2 556.5C300 551.7 343 545.3 385.8 539.8C428.7 534.3 471.3 529.7 514.2 534.3C557 539 600 553 642.8 556C685.7 559 728.3 551 771.2 546.8C814 542.7 857 542.3 878.5 542.2L900 542L900 601L878.5 601C857 601 814 601 771.2 601C728.3 601 685.7 601 642.8 601C600 601 557 601 514.2 601C471.3 601 428.7 601 385.8 601C343 601 300 601 257.2 601C214.3 601 171.7 601 128.8 601C86 601 43 601 21.5 601L0 601Z" fill="#c62368"></path></svg>