<svg id="visual" viewBox="0 0 900 600" width="900" height="600" xmlns="http://www.w3.org/2000/svg" xmlns:xlink="http://www.w3.org/1999/xlink" version="1.1"><rect x="0" y="0" width="900" height="600" fill="#001220"></rect><defs><linearGradient id="grad1_0" x1="33.3%" y1="0%" x2="100%" y2="100%"><stop offset="20%" stop-color="#001220" stop-opacity="1"></stop><stop offset="80%" stop-color="#001220" stop-opacity="1"></stop></linearGradient></defs><defs><linearGradient id="grad2_0" x1="0%" y1="0%" x2="66.7%" y2="100%"><stop offset="20%" stop-color="#001220" stop-opacity="1"></stop><stop offset="80%" stop-color="#001220" stop-opacity="1"></stop></linearGradient></defs><g transform="translate(900, 0)"><path d="M0 486.7C-43.7 434.7 -87.5 382.7 -152.3 367.7C-217.1 352.7 -303 374.6 -344.2 344.2C-385.4 313.8 -381.9 231 -398.2 164.9C-414.5 98.8 -450.6 49.4 -486.7 0L0 0Z" fill="#715DF2"></path></g><g transform="translate(0, 600)"><path d="M0 -486.7C70.8 -484.5 141.5 -482.2 183.7 -443.5C225.9 -404.8 239.4 -329.7 285.7 -285.7C331.9 -241.7 410.7 -228.7 449.7 -186.3C488.6 -143.8 487.7 -71.9 486.7 0L0 0Z" fill="#715DF2"></path></g></svg>