<svg id="visual" viewBox="0 0 900 600" width="900" height="600" xmlns="http://www.w3.org/2000/svg" xmlns:xlink="http://www.w3.org/1999/xlink" version="1.1"><path d="M0 55L21.5 54C43 53 86 51 128.8 50C171.7 49 214.3 49 257.2 51C300 53 343 57 385.8 57C428.7 57 471.3 53 514.2 51C557 49 600 49 642.8 50C685.7 51 728.3 53 771.2 54C814 55 857 55 878.5 55L900 55L900 0L878.5 0C857 0 814 0 771.2 0C728.3 0 685.7 0 642.8 0C600 0 557 0 514.2 0C471.3 0 428.7 0 385.8 0C343 0 300 0 257.2 0C214.3 0 171.7 0 128.8 0C86 0 43 0 21.5 0L0 0Z" fill="#4e1b9a"></path><path d="M0 235L21.5 223C43 211 86 187 128.8 186C171.7 185 214.3 207 257.2 215C300 223 343 217 385.8 220C428.7 223 471.3 235 514.2 235C557 235 600 223 642.8 226C685.7 229 728.3 247 771.2 249C814 251 857 237 878.5 230L900 223L900 53L878.5 53C857 53 814 53 771.2 52C728.3 51 685.7 49 642.8 48C600 47 557 47 514.2 49C471.3 51 428.7 55 385.8 55C343 55 300 51 257.2 49C214.3 47 171.7 47 128.8 48C86 49 43 51 21.5 52L0 53Z" fill="#2b006b"></path><path d="M0 349L21.5 346C43 343 86 337 128.8 338C171.7 339 214.3 347 257.2 354C300 361 343 367 385.8 366C428.7 365 471.3 357 514.2 355C557 353 600 357 642.8 363C685.7 369 728.3 377 771.2 374C814 371 857 357 878.5 350L900 343L900 221L878.5 228C857 235 814 249 771.2 247C728.3 245 685.7 227 642.8 224C600 221 557 233 514.2 233C471.3 233 428.7 221 385.8 218C343 215 300 221 257.2 213C214.3 205 171.7 183 128.8 184C86 185 43 209 21.5 221L0 233Z" fill="#1c0950"></path><path d="M0 421L21.5 415C43 409 86 397 128.8 397C171.7 397 214.3 409 257.2 414C300 419 343 417 385.8 416C428.7 415 471.3 415 514.2 418C557 421 600 427 642.8 431C685.7 435 728.3 437 771.2 430C814 423 857 407 878.5 399L900 391L900 341L878.5 348C857 355 814 369 771.2 372C728.3 375 685.7 367 642.8 361C600 355 557 351 514.2 353C471.3 355 428.7 363 385.8 364C343 365 300 359 257.2 352C214.3 345 171.7 337 128.8 336C86 335 43 341 21.5 344L0 347Z" fill="#1c0950"></path><path d="M0 541L21.5 535C43 529 86 517 128.8 513C171.7 509 214.3 513 257.2 513C300 513 343 509 385.8 513C428.7 517 471.3 529 514.2 534C557 539 600 537 642.8 535C685.7 533 728.3 531 771.2 527C814 523 857 517 878.5 514L900 511L900 389L878.5 397C857 405 814 421 771.2 428C728.3 435 685.7 433 642.8 429C600 425 557 419 514.2 416C471.3 413 428.7 413 385.8 414C343 415 300 417 257.2 412C214.3 407 171.7 395 128.8 395C86 395 43 407 21.5 413L0 419Z" fill="#2b006b"></path><path d="M0 601L21.5 601C43 601 86 601 128.8 601C171.7 601 214.3 601 257.2 601C300 601 343 601 385.8 601C428.7 601 471.3 601 514.2 601C557 601 600 601 642.8 601C685.7 601 728.3 601 771.2 601C814 601 857 601 878.5 601L900 601L900 509L878.5 512C857 515 814 521 771.2 525C728.3 529 685.7 531 642.8 533C600 535 557 537 514.2 532C471.3 527 428.7 515 385.8 511C343 507 300 511 257.2 511C214.3 511 171.7 507 128.8 511C86 515 43 527 21.5 533L0 539Z" fill="#4e1b9a"></path></svg>